<svg width="164" height="164" viewBox="0 0 164 164" fill="none" xmlns="http://www.w3.org/2000/svg">
<g filter="url(#filter0_d_0_3104)">
<rect x="58" y="52" width="48" height="48" rx="14" fill="white"/>
</g>
<path fill-rule="evenodd" clip-rule="evenodd" d="M91 66C91.5523 66 92 66.4477 92 67C92 67.5128 91.614 67.9355 91.1166 67.9933L91 68H73C72.4477 68 72 67.5523 72 67C72 66.4872 72.386 66.0645 72.8834 66.0067L73 66H91ZM90 71.7692V78.2308C90 79.7602 88.6569 81 87 81H86C84.3431 81 83 79.7602 83 78.2308V71.7692C83 70.2398 84.3431 69 86 69H87C88.6569 69 90 70.2398 90 71.7692ZM88 78.1111V71.8889C88 71.398 87.5523 71 87 71H86C85.4477 71 85 71.398 85 71.8889V78.1111C85 78.602 85.4477 79 86 79H87C87.5523 79 88 78.602 88 78.1111ZM78 69H77C75.3431 69 74 70.4271 74 72.1875V82.8125C74 84.5729 75.3431 86 77 86H78C79.6569 86 81 84.5729 81 82.8125V72.1875C81 70.4271 79.6569 69 78 69ZM77 71H78C78.5523 71 79 71.485 79 72.0833V82.9167C79 83.515 78.5523 84 78 84H77C76.4477 84 76 83.515 76 82.9167V72.0833C76 71.485 76.4477 71 77 71Z" fill="#0A1629"/>
<defs>
<filter id="filter0_d_0_3104" x="0" y="0" width="164" height="164" filterUnits="userSpaceOnUse" color-interpolation-filters="sRGB">
<feFlood flood-opacity="0" result="BackgroundImageFix"/>
<feColorMatrix in="SourceAlpha" type="matrix" values="0 0 0 0 0 0 0 0 0 0 0 0 0 0 0 0 0 0 127 0" result="hardAlpha"/>
<feOffset dy="6"/>
<feGaussianBlur stdDeviation="29"/>
<feColorMatrix type="matrix" values="0 0 0 0 0.76808 0 0 0 0 0.797167 0 0 0 0 0.840608 0 0 0 0.103611 0"/>
<feBlend mode="normal" in2="BackgroundImageFix" result="effect1_dropShadow_0_3104"/>
<feBlend mode="normal" in="SourceGraphic" in2="effect1_dropShadow_0_3104" result="shape"/>
</filter>
</defs>
</svg>
